<?xml version="1.0" encoding="utf-8"?>
<!-- Generator: Adobe Illustrator 19.2.1, SVG Export Plug-In . SVG Version: 6.00 Build 0)  -->
<svg version="1.1" id="Layer_1" xmlns="http://www.w3.org/2000/svg" xmlns:xlink="http://www.w3.org/1999/xlink" x="0px" y="0px"
	 viewBox="0 0 48 48" style="enable-background:new 0 0 48 48;" xml:space="preserve">
<style type="text/css">
	.st0{display:none;opacity:0;fill:#FFFFFF;}
	.st1{fill:#939598;}
	.st2{fill:#F63806;}
	.st3{fill:#148ED5;}
	.st4{fill:#D43105;}
	.st5{fill:#17A2F5;}
	.st6{fill:#284454;}
</style>
<rect id="background" x="-235.5" y="-235.5" class="st0" width="519.1" height="519.1"/>
<g id="XMLID_41_">
	<g id="XMLID_31_">
		<path id="XMLID_33_" class="st1" d="M29.1,11.9c1.2,0.5,2.4,1.2,3.4,2l5.4-8.1c-2.1-1.6-4.4-2.8-7-3.6c-0.7-0.2-1.4,0.2-1.5,1
			l-1,7.5C28.3,11.2,28.6,11.7,29.1,11.9z"/>
		<path id="XMLID_52_" class="st1" d="M29.1,37.2c-0.5,0.2-0.8,0.7-0.7,1.2l1,7.5c0.1,0.7,0.8,1.2,1.5,1c2.5-0.8,4.9-2,7-3.6
			l-5.4-8.1C31.5,36,30.3,36.7,29.1,37.2z"/>
		<path id="XMLID_55_" class="st1" d="M18.8,37.2c-1.2-0.5-2.4-1.2-3.4-2l-5.4,8.1c2.1,1.6,4.4,2.8,7,3.6c0.7,0.2,1.4-0.2,1.5-1
			l1-7.5C19.6,37.9,19.3,37.4,18.8,37.2z"/>
		<path id="XMLID_56_" class="st1" d="M18.5,3.1c-0.1-0.7-0.8-1.2-1.5-1c-2.5,0.8-4.9,2-7,3.6l5.4,8.1c1-0.8,2.1-1.5,3.4-2
			c0.5-0.2,0.8-0.7,0.7-1.2L18.5,3.1z"/>
		<path id="XMLID_57_" class="st1" d="M26.3,2.9h-4.6c-0.3,0-0.6,0.3-0.6,0.6s0.3,0.6,0.6,0.6h4.6c0.3,0,0.6-0.3,0.6-0.6
			S26.7,2.9,26.3,2.9z"/>
		<path id="XMLID_58_" class="st1" d="M26.6,6.6C26.6,6.3,26.3,6,26,6h-3.9c-0.3,0-0.6,0.3-0.6,0.6c0,0.3,0.3,0.6,0.6,0.6H26
			C26.3,7.2,26.6,7,26.6,6.6z"/>
		<path id="XMLID_64_" class="st1" d="M25.6,9.1h-3.2c-0.3,0-0.6,0.3-0.6,0.6c0,0.3,0.3,0.6,0.6,0.6h3.2c0.3,0,0.6-0.3,0.6-0.6
			C26.3,9.4,26,9.1,25.6,9.1z"/>
		<path id="XMLID_69_" class="st1" d="M26.3,45h-4.6c-0.3,0-0.6,0.3-0.6,0.6c0,0.3,0.3,0.6,0.6,0.6h4.6c0.3,0,0.6-0.3,0.6-0.6
			C26.9,45.3,26.7,45,26.3,45z"/>
		<path id="XMLID_70_" class="st1" d="M22.1,43.2H26c0.3,0,0.6-0.3,0.6-0.6c0-0.3-0.3-0.6-0.6-0.6h-3.9c-0.3,0-0.6,0.3-0.6,0.6
			C21.5,42.9,21.8,43.2,22.1,43.2z"/>
		<path id="XMLID_71_" class="st1" d="M25.6,38.9h-3.2c-0.3,0-0.6,0.3-0.6,0.6s0.3,0.6,0.6,0.6h3.2c0.3,0,0.6-0.3,0.6-0.6
			S26,38.9,25.6,38.9z"/>
	</g>
	<path id="XMLID_506_" class="st2" d="M37.9,5.7l-5.4,8.1c3.1,2.5,5.2,6.4,5.2,10.7c0,4.3-2,8.2-5.2,10.7l5.4,8.1
		c5.7-4.3,9.5-11.1,9.5-18.8C47.4,16.8,43.6,10,37.9,5.7z"/>
	<path id="XMLID_485_" class="st3" d="M10.1,43.3l5.4-8.1c-3.1-2.5-5.2-6.4-5.2-10.7c0-4.3,2-8.2,5.2-10.7l-5.4-8.1
		C4.3,10,0.6,16.8,0.6,24.5C0.6,32.2,4.3,39,10.1,43.3z"/>
	<g id="XMLID_19_">
		<path id="XMLID_20_" class="st4" d="M40.2,37.3c-0.3-0.3-0.8-0.2-1,0.1c-0.2,0.3-0.5,0.6-0.8,0.9c-0.3,0.3-0.2,0.8,0.1,1
			c0.1,0.1,0.3,0.2,0.5,0.2c0.2,0,0.4-0.1,0.5-0.2c0.3-0.3,0.6-0.6,0.8-1C40.5,38,40.5,37.6,40.2,37.3z"/>
		<path id="XMLID_34_" class="st4" d="M44.4,18.4c-0.1-0.4-0.5-0.6-0.9-0.5c-0.4,0.1-0.6,0.5-0.5,0.9c0.5,1.8,0.7,3.7,0.7,5.5
			c0,4-1.1,7.8-3.2,11.2c-0.2,0.3-0.1,0.8,0.2,1c0.1,0.1,0.3,0.1,0.4,0.1c0.2,0,0.5-0.1,0.6-0.3c2.3-3.6,3.4-7.7,3.4-12
			C45.2,22.3,44.9,20.3,44.4,18.4z"/>
	</g>
	<g id="XMLID_21_">
		<path id="XMLID_26_" class="st5" d="M9.4,9.7C9.2,9.6,9.1,9.5,8.9,9.5c-0.2,0-0.4,0.1-0.5,0.2c-0.3,0.3-0.6,0.6-0.8,1
			c-0.3,0.3-0.2,0.8,0.1,1c0.3,0.3,0.8,0.2,1-0.1c0.2-0.3,0.5-0.6,0.8-0.9C9.7,10.4,9.7,10,9.4,9.7z"/>
		<path id="XMLID_32_" class="st5" d="M7,12.6c-0.1-0.1-0.3-0.1-0.4-0.1c-0.2,0-0.5,0.1-0.6,0.3c-2.3,3.6-3.4,7.7-3.4,12
			c0,2,0.3,4,0.8,5.9c0.1,0.4,0.5,0.6,0.9,0.5c0.4-0.1,0.6-0.5,0.5-0.9C4.3,28.5,4,26.6,4,24.8c0-4,1.1-7.8,3.2-11.2
			C7.5,13.3,7.4,12.8,7,12.6z"/>
	</g>
	<path id="XMLID_27_" class="st6" d="M45.3,13.6c-1.6-3.1-3.9-5.8-6.6-8l0,0l-0.5-0.3l-0.5-0.4l0,0c-2-1.4-4.3-2.5-6.6-3.3
		c-0.5-0.2-1-0.1-1.5,0.2c-0.4,0.3-0.7,0.7-0.8,1.3l-1,7.5c-0.1,0.8,0.3,1.6,1.1,1.9c1.2,0.5,2.2,1.1,3.2,1.9
		c3.1,2.5,4.9,6.2,4.9,10.2c0,4-1.8,7.7-4.9,10.2c-1,0.8-2.1,1.4-3.2,1.9c-0.7,0.3-1.2,1.1-1.1,1.9l1,7.5c0.1,0.5,0.4,1,0.8,1.3
		c0.3,0.2,0.6,0.3,0.9,0.3c0.2,0,0.4,0,0.5-0.1c2.4-0.7,4.6-1.8,6.6-3.3l0,0l0.5-0.4l0.5-0.3l0,0c2.7-2.1,5-4.9,6.6-8
		c1.8-3.4,2.7-7.1,2.7-10.9C48,20.7,47.1,17,45.3,13.6z M32.3,13c-0.9-0.7-1.9-1.2-3-1.7C29.1,11.2,29,11,29,10.7l1-7.5
		c0-0.2,0.2-0.3,0.3-0.4c0.1,0,0.2-0.1,0.3-0.1c0.1,0,0.1,0,0.2,0c2.3,0.7,4.4,1.8,6.3,3.1L32.3,13z M30.7,46.3
		c-0.2,0.1-0.4,0-0.5-0.1c-0.1-0.1-0.2-0.2-0.3-0.4l-1-7.5c0-0.2,0.1-0.5,0.3-0.6c1.1-0.4,2.1-1,3-1.7l4.7,7.1
		C35.1,44.5,33,45.6,30.7,46.3z M38,42.4l-4.7-7.1c3.2-2.7,5-6.6,5-10.8c0-4.2-1.8-8.1-5-10.8L38,6.6c0.4,0.3,0.7,0.6,1.1,0.9
		l-4,5.6c-0.2,0.3-0.1,0.7,0.1,0.8c0.1,0.1,0.2,0.1,0.4,0.1c0.2,0,0.4-0.1,0.5-0.3L40,8.3c0.3,0.3,0.6,0.6,0.8,0.9l-3,4.1
		c-0.2,0.3-0.1,0.6,0.1,0.8c0.1,0.1,0.2,0.1,0.4,0.1c0.2,0,0.4-0.1,0.5-0.2l2.9-3.9c0.2,0.3,0.5,0.6,0.7,0.9l-1.9,2.4
		c-0.2,0.3-0.2,0.6,0.1,0.9c0.1,0.1,0.2,0.1,0.4,0.1c0.2,0,0.4-0.1,0.5-0.2l1.6-2.1c2.4,3.7,3.7,8,3.7,12.4
		C46.8,31.5,43.5,38.1,38,42.4z"/>
	<path id="XMLID_48_" class="st6" d="M19.1,36.6c-1.2-0.5-2.2-1.1-3.2-1.9c-3.1-2.5-4.9-6.2-4.9-10.2c0-4,1.8-7.7,4.9-10.2
		c1-0.8,2.1-1.4,3.2-1.9c0.7-0.3,1.2-1.1,1.1-1.9l-1-7.5c-0.1-0.5-0.4-1-0.8-1.3c-0.4-0.3-1-0.4-1.5-0.2c-2.4,0.7-4.6,1.8-6.6,3.3
		l0,0L9.7,5.3L9.3,5.6l0,0c-2.7,2.1-5,4.9-6.6,8C0.9,17,0,20.7,0,24.5c0,3.9,0.9,7.5,2.7,10.9c1.6,3.1,3.9,5.8,6.6,8l0,0l0.5,0.3
		l0.5,0.4l0,0c2,1.4,4.3,2.5,6.6,3.3c0.2,0.1,0.3,0.1,0.5,0.1c0.3,0,0.7-0.1,0.9-0.3c0.4-0.3,0.7-0.7,0.8-1.3l1-7.5
		C20.3,37.7,19.8,36.9,19.1,36.6z M17.2,2.8c0.2-0.1,0.4,0,0.5,0.1c0.1,0.1,0.2,0.2,0.3,0.4l1,7.5c0,0.2-0.1,0.5-0.3,0.6
		c-1.1,0.4-2.1,1-3,1.7l-4.7-7.1C12.8,4.5,15,3.5,17.2,2.8z M9.9,42.4c-0.4-0.3-0.7-0.6-1.1-0.9l4-5.6c0.2-0.3,0.1-0.7-0.1-0.8
		c-0.3-0.2-0.7-0.1-0.8,0.1L8,40.7c-0.3-0.3-0.6-0.6-0.8-0.9l3-4.1c0.2-0.3,0.1-0.6-0.1-0.8c-0.3-0.2-0.6-0.1-0.8,0.1l-2.9,3.9
		c-0.2-0.3-0.5-0.6-0.7-0.9l1.9-2.4c0.2-0.3,0.2-0.6-0.1-0.9c-0.3-0.2-0.6-0.2-0.9,0.1l-1.6,2.1c-2.4-3.7-3.7-8-3.7-12.4
		c0-7,3.3-13.6,8.7-17.9l4.7,7.1c-3.2,2.7-5,6.6-5,10.8c0,4.2,1.8,8.1,5,10.8L9.9,42.4z M19,38.3l-1,7.5c0,0.2-0.2,0.3-0.3,0.4
		c-0.1,0.1-0.2,0.1-0.5,0.1c-2.3-0.7-4.4-1.8-6.3-3.1l4.7-7.1c0.9,0.7,1.9,1.2,3,1.7C18.9,37.9,19,38.1,19,38.3z"/>
	<path id="XMLID_74_" class="st6" d="M31.5,24.6c0-4.1-3.4-7.5-7.5-7.5s-7.5,3.4-7.5,7.5s3.4,7.5,7.5,7.5S31.5,28.7,31.5,24.6z
		 M23.3,30.8c-3.1-0.3-5.6-3-5.6-6.3c0-0.5,0.1-1.1,0.2-1.6l3.6,3.8c0,0,0,1.1,0,1.4c0,0.3,0.5,0.7,0.8,0.7h0.8
		c0.1,0,0.2,0.1,0.2,0.2V30.8z M28.5,28.1c-0.1-0.2-0.2-0.4-0.5-0.4l-1.5,0v-2c0-0.6-0.4-1-1-1l-4.7-0.1v-1.8h1.3
		c0.7,0,1.2-0.5,1.2-1.2v-1.4h2.3c0,0,0.9-0.5,1.3-1.2c2,1.1,3.3,3.2,3.3,5.6c0,1.6-0.6,3.1-1.6,4.2L28.5,28.1z"/>
</g>
</svg>
