<?xml version="1.0" encoding="UTF-8"?>
<svg width="1089.5" height="793.45" version="1.1" viewBox="0 0 1089.5 793.45" xml:space="preserve" xmlns="http://www.w3.org/2000/svg"><g transform="matrix(1.3333 0 0 -1.3333 0 793.45)"><g transform="scale(.1)"><g fill="#8f9295"><path d="m4505.2 5100.4c100.57-41.08 193.92-96.26 277.64-163.04l445.21 666.27c-171.95 127.75-365.79 227.64-574.78 292.87-56.42 17.6-115.15-19.81-123.1-78.37l-83.69-616.5c-5.86-43.21 18.36-84.75 58.72-101.23"/><path d="m4505.2 3012.1c-40.36-16.49-64.58-58.03-58.72-101.23l83.69-616.51c7.95-58.56 66.68-95.97 123.1-78.36 208.99 65.23 402.83 165.11 574.78 292.86l-445.21 666.27c-83.72-66.78-177.07-121.96-277.64-163.03"/><path d="m3658.2 3012.1c-100.57 41.07-193.93 96.25-277.64 163.03l-445.22-666.27c171.96-127.75 365.8-227.63 574.79-292.86 56.42-17.61 115.14 19.8 123.09 78.36l83.69 616.51c5.87 43.2-18.35 84.74-58.71 101.23"/><path d="m3633.2 5818.2c-7.95 58.56-66.67 95.97-123.09 78.37-208.99-65.23-402.83-165.12-574.79-292.87l445.22-666.27c83.71 66.78 177.07 121.96 277.64 163.04 40.36 16.48 64.58 58.02 58.71 101.23l-83.69 616.5"/><path d="m4274.2 5836.3h-378.74c-27.62 0-50-22.39-50-50s22.38-50 50-50h378.74c27.62 0 50 22.39 50 50s-22.38 50-50 50"/><path d="m4294.2 5531.6c0 27.61-22.38 50-50 50h-318.74c-27.62 0-50-22.39-50-50s22.38-50 50-50h318.74c27.62 0 50 22.39 50 50"/><path d="m4218.4 5326.9h-267c-27.62 0-50-22.39-50-50s22.38-50 50-50h267c27.62 0 50 22.39 50 50s-22.38 50-50 50"/><path d="m4274.2 2366.2h-378.74c-27.62 0-50-22.38-50-50s22.38-50 50-50h378.74c27.62 0 50 22.38 50 50s-22.38 50-50 50"/><path d="m3925.5 2520.9h318.74c27.62 0 50 22.38 50 50 0 27.61-22.38 50-50 50h-318.74c-27.62 0-50-22.39-50-50 0-27.62 22.38-50 50-50"/><path d="m4218.4 2875.6h-267c-27.62 0-50-22.38-50-50 0-27.61 22.38-50 50-50h267c27.62 0 50 22.39 50 50 0 27.62-22.38 50-50 50"/></g><g fill="#448cd2"><path d="m724.02 1003.8c-8.968 1.27-20.668 2.64-29.503 2.64 0 0-78.368 0.47-87.907 0.78-8.84 0.28-17.699-2.96-23.34-9.77-1-1.199-1.718-2.378-1.964-3.449-12.672-50.691-36.793-92.379-72.352-125.07-33.121-29.859-71.141-47.629-114.06-53.352-8.579-0.839-16.77-1.226-24.528-1.226-32.711 0-63.566 8.578-92.59 25.758-39.656 23.691-69.285 60.699-88.914 110.97-18.808 48.641-28.203 105.87-28.203 171.71 0 50.67 7.758 99.73 23.305 147.16 33.105 98.52 102.19 147.77 207.25 147.77 36.375 0 72.972-18.19 109.76-54.58 18.395-17.97 33.11-36.16 44.149-54.55 11.562-19.46 21.265-35.99 26.887-47.43 3.695-7.51 11.316-12.24 19.683-12.01 8.703 0.24 81.59-0.66 81.59-0.66 14.293 0 26.77 5.1 37.398 15.32 10.215 10.22 15.336 22.7 15.336 37.4v191.32c0 14.31-5.121 26.78-15.336 37.42-10.628 10.2-23.105 15.32-37.398 15.32h-31.277c-14.715 0-27.192-5.12-37.403-15.32-10.222-10.22-15.332-22.5-15.332-36.8-54.371 44.15-119.57 66.23-195.61 66.23-74.805 0-141.86-17.17-201.13-51.51-60.086-35.99-107.3-87.28-141.65-153.91-33.934-65.82-50.891-143.1-50.891-231.79 0-80.94 14.926-156.58 44.766-226.88 34.344-80.937 86.66-141.04 156.98-180.28 52.317-29.008 108.12-43.539 167.4-43.539 13.898 0 28.414 0.82 43.539 2.449 75.621 9.012 142.66 38.02 201.13 87.082 41.699 35.149 76.648 86.86 104.86 155.13 13.488 32.301 22.859 59.422 24.914 67.192 0.168 0.628 0.309 2.839 0.098 3.961-1.785 9.468-10.113 15.157-19.653 16.517"/><path d="m1242.3 1304.3c-38.85 23.71-77.07 35.57-114.67 35.57-24.94 0-44.77-5.52-59.48-16.56-11.86-8.98-21.87-14.92-30.05-17.77-8.18-2.45-12.27-1.44-12.27 3.07 0 11.43-17.57 17.15-52.722 17.15h-114.06c-14.316 0-26.781-5.1-37.402-15.32-10.223-10.22-15.332-22.7-15.332-37.4v-31.27c0-14.33 3.886-26.78 11.656-37.42 7.762-10.22 17.168-15.32 28.207-15.32 11.027 0 20.433-5.13 28.207-15.33 7.758-10.64 11.644-23.09 11.644-37.4v-256.93c0-14.727-3.886-27.199-11.644-37.399-7.774-10.23-17.18-15.328-28.207-15.328-11.039 0-20.445-5.121-28.207-15.339-7.77-10.622-11.656-23.102-11.656-37.411v-31.261c0-14.731 5.109-27.2 15.332-37.399 10.621-10.222 23.086-15.351 37.402-15.351h202.35c14.72 0 27.18 5.129 37.4 15.351 10.22 10.199 15.34 22.668 15.34 37.399v31.261c0 14.309-3.9 26.789-11.65 37.411-7.36 10.218-16.56 15.339-27.6 15.339-10.63 0-19.84 5.098-27.6 15.328-7.35 10.2-11.03 22.672-11.03 37.399v142.25c0 40.08 4.91 76.44 14.72 109.16 9.4 29.01 27.38 46.39 53.96 52.11 6.95 1.63 13.89 2.45 20.84 2.45 12.68 0 25.27-2.78 36.79-8.06 17.95-8.24 29.6-13.92 34.96-17.07 7.36-4.5 17.17 9.61 29.43 42.31l15.94 42.92c4.92 13.49 7.37 26.16 7.37 38.02-0.41 11.44-3.07 18.39-7.97 20.84"/><path d="m1722.5 857.3c-27.8-31.879-62.75-47.832-104.86-47.832-41.69 0-76.64 15.722-104.85 47.211-29.84 34.351-44.77 85.25-44.77 152.7 0 67.03 14.93 117.72 44.77 152.06 28.21 31.88 63.16 47.84 104.85 47.84 41.7-0.42 76.44-16.56 104.25-48.44 30.66-34.35 45.99-84.85 45.99-151.46 0-67.06-15.13-117.75-45.38-152.08zm107.31 396.74c-35.98 36.78-83.39 62.94-142.26 78.49-22.9 5.72-48.04 8.79-75.43 9.18-77.67 0-144.1-24.11-199.28-72.35-43.33-37.6-73.79-103.42-91.37-197.43-6.54-34.75-9.81-57.03-9.81-66.86 0-101.78 28.21-181.91 84.62-240.37 47-48.219 106.49-76.636 178.44-85.23 13.08-1.207 25.96-1.828 38.63-1.828 55.19 0 106.49 13.07 153.91 39.23 47.84 26.168 84.21 63.168 109.15 111 26.16 50.692 39.25 108.74 39.25 174.13 0 14.73-0.61 30.05-1.85 46-8.18 87.89-36.17 156.58-84 206.04"/><path d="m2410.5 1041.9c-28.2 11.83-78.49 27.58-150.84 47.2-51.51 13.49-78.7 20.85-81.56 22.08-25.35 10.62-38.02 24.31-38.02 41.09 0 17.16 10.42 30.05 31.27 38.62 18.8 8.19 42.32 12.28 70.52 12.28 41.28 0 67.65-10.85 79.1-32.51 10.26-19.02 18.49-36.58 23.51-48.95 4.04-9.96 13.99-16.08 24.71-15.21 8.09 0.65 18.77 1.72 32.11 3.45l39.86 5.52c14.31 2.05 26.57 8.98 36.8 20.86 10.21 11.84 15.32 24.93 15.32 39.24v91.98c0 14.7-5.11 27.18-15.32 37.4-10.23 10.22-22.7 15.32-37.42 15.32h-0.6c-14.32 0-27.41-2.65-39.25-7.97-11.45-5.72-17.99-12.47-19.63-20.22-35.16 28.19-84 42.3-146.55 42.3-62.14 0-115.69-15.54-160.66-46.61-53.14-36.38-79.7-85.64-79.7-147.77 0-72.78 33.3-124.88 99.94-156.37 22.89-11.847 67.45-25.117 133.68-39.847 55.18-11.86 94.02-25.352 116.51-40.473 12.26-7.769 18.39-18.609 18.39-32.5 0-22.078-11.25-39.238-33.73-51.508-20.84-11.039-46.2-16.558-76.03-16.558-35.97 0-65 8.386-87.08 25.148-14.71 11.039-22.81 19.43-24.53 25.141-4.7 15.64-9.55 30.429-13.16 42.629-4.9 16.531-20.93 27.039-38.03 24.898-5.78-0.719-12.41-1.547-19.93-2.519l-41.08-5.52c-14.32-1.66-26.59-8.391-36.8-20.25-10.22-11.437-15.33-24.527-15.33-39.238v-115.89c0-14.73 5.11-27.199 15.33-37.398 10.62-10.223 23.09-15.352 37.41-15.352h0.61c14.3 0 27.38 3.692 39.25 11.039 11.84 7.781 19 17.18 21.46 28.219 38.83-34.75 92.99-52.129 162.49-52.129 106.29 0 182.12 34.141 227.49 102.4 22.48 33.938 33.73 69.907 33.73 107.93 0 77.25-34.75 130.62-104.24 160.05"/><path d="m3015.5 1041.9c-28.2 11.83-78.49 27.58-150.84 47.2-51.51 13.49-78.7 20.85-81.56 22.08-25.35 10.62-38.02 24.31-38.02 41.09 0 17.16 10.42 30.05 31.27 38.62 18.8 8.19 42.32 12.28 70.52 12.28 41.28 0 67.65-10.85 79.1-32.51 10.26-19.02 18.49-36.58 23.51-48.95 4.04-9.96 13.99-16.08 24.71-15.21 8.09 0.65 18.77 1.72 32.11 3.45l39.86 5.52c14.31 2.05 26.57 8.98 36.8 20.86 10.21 11.84 15.32 24.93 15.32 39.24v91.98c0 14.7-5.11 27.18-15.32 37.4-10.23 10.22-22.7 15.32-37.42 15.32h-0.6c-14.32 0-27.41-2.65-39.25-7.97-11.45-5.72-17.99-12.47-19.63-20.22-35.16 28.19-84 42.3-146.55 42.3-62.14 0-115.69-15.54-160.66-46.61-53.14-36.38-79.7-85.64-79.7-147.77 0-72.78 33.3-124.88 99.94-156.37 22.89-11.847 67.45-25.117 133.68-39.847 55.18-11.86 94.02-25.352 116.51-40.473 12.26-7.769 18.39-18.609 18.39-32.5 0-22.078-11.25-39.238-33.73-51.508-20.84-11.039-46.2-16.558-76.03-16.558-35.97 0-65 8.386-87.08 25.148-14.71 11.039-22.81 19.43-24.53 25.141-4.7 15.64-9.55 30.429-13.16 42.629-4.9 16.531-20.93 27.039-38.03 24.898-5.78-0.719-12.41-1.547-19.93-2.519l-41.08-5.52c-14.32-1.66-26.59-8.391-36.8-20.25-10.22-11.437-15.33-24.527-15.33-39.238v-115.89c0-14.73 5.11-27.199 15.33-37.398 10.62-10.223 23.09-15.352 37.41-15.352h0.61c14.3 0 27.38 3.692 39.25 11.039 11.84 7.781 19 17.18 21.46 28.219 38.83-34.75 92.99-52.129 162.49-52.129 106.29 0 182.12 34.141 227.49 102.4 22.48 33.938 33.73 69.907 33.73 107.93 0 77.25-34.75 130.62-104.24 160.05"/></g><g fill="#ee2e21"><path d="m3898.3 1003.8c-8.97 1.27-20.67 2.64-29.51 2.64 0 0-78.36 0.47-87.9 0.78-8.84 0.28-17.7-2.96-23.34-9.77-1-1.199-1.72-2.378-1.97-3.449-12.67-50.691-36.79-92.379-72.35-125.07-33.12-29.859-71.14-47.629-114.06-53.352-8.58-0.839-16.77-1.226-24.53-1.226-32.71 0-63.56 8.578-92.59 25.758-39.65 23.691-69.28 60.699-88.91 110.97-18.81 48.641-28.21 105.87-28.21 171.71 0 50.67 7.76 99.73 23.31 147.16 33.11 98.52 102.19 147.77 207.25 147.77 36.38 0 72.98-18.19 109.77-54.58 18.39-17.97 33.11-36.16 44.15-54.55 11.56-19.46 21.26-35.99 26.89-47.43 3.69-7.51 11.31-12.24 19.68-12.01 8.7 0.24 81.59-0.66 81.59-0.66 14.29 0 26.77 5.1 37.4 15.32 10.21 10.22 15.33 22.7 15.33 37.4v191.32c0 14.31-5.12 26.78-15.33 37.42-10.63 10.2-23.11 15.32-37.4 15.32h-31.28c-14.71 0-27.19-5.12-37.4-15.32-10.22-10.22-15.33-22.5-15.33-36.8-54.37 44.15-119.57 66.23-195.61 66.23-74.81 0-141.86-17.17-201.13-51.51-60.09-35.99-107.31-87.28-141.65-153.91-33.94-65.82-50.89-143.1-50.89-231.79 0-80.94 14.92-156.58 44.76-226.88 34.34-80.937 86.66-141.04 156.98-180.28 52.32-29.008 108.12-43.539 167.4-43.539 13.89 0 28.41 0.82 43.54 2.449 75.62 9.012 142.66 38.02 201.13 87.082 41.69 35.149 76.64 86.86 104.85 155.13 13.49 32.301 22.86 59.422 24.91 67.192 0.17 0.628 0.31 2.839 0.1 3.961-1.79 9.468-10.11 15.157-19.65 16.517"/><path d="m4392.3 857.3c-27.79-31.879-62.74-47.832-104.85-47.832-41.7 0-76.65 15.722-104.85 47.211-29.84 34.351-44.77 85.25-44.77 152.7 0 67.03 14.93 117.72 44.77 152.06 28.2 31.88 63.15 47.84 104.85 47.84 41.7-0.42 76.44-16.56 104.25-48.44 30.65-34.35 45.99-84.85 45.99-151.46 0-67.06-15.14-117.75-45.39-152.08zm107.32 396.74c-35.98 36.78-83.39 62.94-142.27 78.49-22.89 5.72-48.03 8.79-75.42 9.18-77.67 0-144.1-24.11-199.28-72.35-43.34-37.6-75.24-79.5-92.81-173.51-6.55-34.75-8.37-80.95-8.37-90.78 0-101.78 28.2-181.91 84.62-240.37 47-48.219 106.48-76.636 178.44-85.23 13.08-1.207 25.95-1.828 38.63-1.828 55.18 0 106.48 13.07 153.91 39.23 47.83 26.168 84.21 63.168 109.15 111 26.16 50.692 39.24 108.74 39.24 174.13 0 14.73-0.6 30.05-1.84 46-8.18 87.89-36.18 156.58-84 206.04"/><path d="m5619.9 826.65c-11.03 0-20.44 5.098-28.21 15.328-7.77 10.2-11.66 22.672-11.66 37.399v237.92c0 67.03-16.76 119.98-50.27 158.82-36.79 42.5-88.92 63.76-156.37 63.76-69.5 0-128.15-26.98-175.99-80.94-33.94 53.96-90.75 80.94-170.45 80.94-44.98 0-86.07-12.47-123.27-37.4-11.86-8.19-23.09-12.67-33.71-13.49-10.23-0.42-16.78 3.07-19.63 10.42-6.54 17.57-27.4 26.36-62.55 26.36h-88.3c-14.32 0-26.78-5.1-37.4-15.32-10.22-10.22-15.33-22.7-15.33-37.4v-31.27c0-14.33 4.29-26.78 12.88-37.42 8.58-10.22 19.01-15.32 31.26-15.32 12.27 0 22.7-5.13 31.27-15.33 8.59-10.64 12.89-23.09 12.89-37.4v-256.93c0-14.727-3.88-27.199-11.66-37.399-7.77-10.23-17.16-15.328-28.2-15.328s-20.45-5.121-28.21-15.339c-7.77-10.622-11.64-23.102-11.64-37.411v-31.261c0-14.731 5.1-27.2 15.33-37.399 10.21-10.222 22.69-15.351 37.4-15.351h202.36c14.3 0 26.76 5.129 37.4 15.351 10.22 10.199 15.32 22.668 15.32 37.399v31.261c0 14.309-3.88 26.789-11.63 37.411-7.78 10.218-16.98 15.339-27.6 15.339-11.04 0-20.45 5.098-28.22 15.328-7.77 10.2-11.64 22.672-11.64 37.399v139.18c0 50.7 5.1 88.92 15.33 114.68 7.75 21.66 21.24 38.84 40.47 51.51 19.21 12.65 40.87 19.01 65 19.01 22.08 0 39.63-9.42 52.72-28.21 6.96-9.81 11.44-19.43 13.49-28.82 8.59-33.93 12.88-68.49 12.88-103.64v-300.45c0-14.731 5.12-27.2 15.34-37.399 10.2-10.222 22.68-15.351 37.4-15.351h122.03c14.71 0 27.18 5.129 37.41 15.351 10.2 10.199 15.32 22.668 15.32 37.399v31.261c0 14.309-3.89 26.789-11.66 37.411-7.35 10.218-16.56 15.339-27.57 15.339-10.65 0-19.85 5.098-27.6 15.328-7.36 10.2-11.04 22.672-11.04 37.399v176.59c0 44.15 9.4 79.11 28.19 104.87 20.87 28.59 50.7 42.92 89.53 42.92 37.21 0 61.32-14.11 72.36-42.32 3.26-9.41 5.12-17.58 5.52-24.53 1.23-35.15 1.85-70.3 1.85-105.45v-288.82c0-14.731 5.1-27.2 15.32-37.399 10.23-10.222 22.7-15.351 37.41-15.351h123.24c14.73 0 27.18 5.129 37.42 15.351 10.62 10.199 15.95 22.668 15.95 37.399v31.261c0 14.309-4.11 26.789-12.28 37.411-7.77 10.218-17.16 15.339-28.2 15.339"/><path d="m6185.3 863.44c-23.31-43.351-58.26-65.011-104.85-65.011-35.57 0-66.04 14.929-91.39 44.761-26.56 31.899-39.85 82.379-39.85 151.46 0 53.958 10.62 100.57 31.88 139.81 24.53 44.97 59.28 67.45 104.26 67.45 44.14 0 77.65-21.26 100.55-63.77 20.02-36.38 30.05-81.56 30.05-135.52 0-55.589-10.22-102-30.65-139.18zm55.8 422.48c-43.35 29.43-92.4 44.16-147.16 44.16-62.55 0-115.5-21.26-158.84-63.79v0.62c-5.3 13.49-15.12 25.15-29.43 34.95-13.89 9.41-28.19 14.11-42.92 14.11h-88.3c-14.3 0-26.78-5.12-37.4-15.32-10.22-10.23-15.32-22.7-15.32-37.41v-31.28c0-14.31 4.28-26.78 12.87-37.4 8.59-10.23 18.79-15.33 30.65-15.33 12.27 0 22.5-5.12 30.67-15.34 8.58-10.62 12.87-23.1 12.87-37.4v-481.35c0-14.309-3.89-26.559-11.64-36.782-7.77-10.648-17.18-15.968-28.22-15.968s-20.44-5.102-28.19-15.321c-7.77-10.199-11.66-22.679-11.66-37.398v-31.27c0-14.722 5.1-27.203 15.32-37.422 10.23-10.199 22.7-15.32 37.41-15.32h202.35c14.31 0 26.78 5.121 37.4 15.32 10.23 10.219 15.35 22.7 15.35 37.422v31.27c0 14.719-3.89 27.199-11.66 37.398-7.77 10.219-16.96 15.321-27.6 15.321-11.04 0-20.44 5.32-28.19 15.968-7.77 10.223-11.66 22.473-11.66 36.782v61.929c36.78-26.558 79.93-39.847 129.38-39.847 53.15 0 102.41 14.918 147.78 44.746 44.16 29.832 76.86 69.492 98.12 118.97 23.69 50.668 35.57 107.7 35.57 171.06 0 60.1-10.65 114.88-31.91 164.34-21.24 51.11-53.14 90.97-95.64 119.58"/><path d="m7069.5 1320.2h-201.73c-14.71 0-27.18-5.1-37.4-15.32-10.23-10.22-15.33-22.7-15.33-37.4v-31.27c0-14.33 3.67-26.78 11.04-37.42 7.75-10.22 16.96-15.32 27.58-15.32 10.64 0 19.83-5.13 27.6-15.33 7.35-10.64 11.04-23.09 11.04-37.4v-149.63c0-46.609-4.9-81.558-14.71-104.85-8.19-21.657-23.31-38.637-45.39-50.887-21.26-12.68-44.56-19.012-69.9-19.012-23.72 0-43.32 5.52-58.87 16.551-16.36 11.859-27.18 28-32.5 48.449-2.45 11.039-3.88 26.559-4.28 46.61-0.84 35.152-1.24 70.3-1.24 105.45v107.32c0 14.31 3.69 26.76 11.04 37.4 6.96 10.2 15.32 15.33 25.15 15.33 10.2 0 18.79 5.1 25.74 15.32 6.96 10.64 10.43 23.09 10.43 37.42v31.27c0 14.7-5.11 27.18-15.33 37.4s-22.67 15.32-37.4 15.32h-202.35c-14.31 0-26.79-5.1-37.41-15.32-10.22-10.22-15.32-22.7-15.32-37.4v-31.27c0-14.33 4.28-26.78 12.87-37.42 8.59-10.22 18.79-15.32 30.65-15.32s22.08-5.13 30.67-15.33c8.17-10.64 12.27-23.09 12.27-37.4v-198.07c0-44.563 2.03-77.254 6.12-98.102 11.04-53.16 37.62-94.031 79.73-122.65 38.41-26.977 85.02-40.469 139.8-40.469 69.48 0 127.75 23.52 174.76 70.52l2.45-7.969c4.5-13.488 13.69-25.149 27.6-34.949 13.49-9.821 27.37-14.731 41.68-14.731h80.94c14.31 0 26.59 5.129 36.81 15.352 10.62 10.199 15.94 22.668 15.94 37.398v31.27c0 14.3-3.89 26.781-11.66 37.398-8.17 10.223-17.77 15.34-28.81 15.34-10.64 0-20.05 5.101-28.22 15.332-7.77 10.199-11.63 22.668-11.63 37.398v256.93c0 14.31 3.86 26.76 11.63 37.4 8.17 10.2 17.58 15.33 28.22 15.33 11.04 0 20.64 5.1 28.81 15.32 7.77 10.64 11.66 23.09 11.66 37.42v31.27c0 14.7-5.32 27.18-15.94 37.4-10.22 10.22-22.5 15.32-36.81 15.32"/><path d="m7468.1 1338.7c-14.31 0-26.59 5.3-36.79 15.94-9.82 10.2-14.72 22.47-14.72 36.78v120.8c0 14.3-4.09 23.51-12.26 27.6-8.19 4.08-17.99 1.63-29.43-7.36l-65.62-51.51c-27.79-21.68-41.7-50.07-41.7-85.24v-4.29c0-14.31-4.09-26.58-12.26-36.78-8.19-10.64-17.99-15.94-29.43-15.94-11.86 0-21.88-5.13-30.05-15.35-8.19-10.22-12.25-22.67-12.25-37.4v-20.84c0-14.73 4.06-27.2 12.25-37.4 8.17-10.23 18.19-15.35 30.05-15.35 11.44 0 21.24-5.3 29.43-15.94 8.17-10.22 12.26-22.48 12.26-36.78v-264.91c0-63.367 4.92-105.87 14.72-127.53 22.08-51.512 69.09-77.281 141.04-77.281h22.68c14.27 0 27.22 0.519 37.4 1.109 14.28 0.82 26.02 11.289 28.8 25.32 2 10.129 3.7 22.961 3.7 37.36l-0.44 30.609c0 14.301-0.72 24.883-5.62 34.684-0.05 0.097-0.1 0.187-0.15 0.277-3.72 7.051-11.17 11.301-19.13 11.48l-19.41 0.43c-16.36-0.84-26.17 1.41-29.43 0.992-11.86 0.817-19.43 4.918-22.7 12.278l-1.83 4.902c-0.42 26.559-0.62 57.43-0.62 92.598v217.68c0 14.3 4.9 26.56 14.72 36.78 10.2 10.64 22.48 15.94 36.79 15.94 13.89 0 25.96 5.12 36.19 15.35 10.2 10.2 15.32 22.67 15.32 37.4v20.84c0 14.73-5.12 27.18-15.32 37.4-10.23 10.22-22.3 15.35-36.19 15.35"/><path d="m7742.2 1083.6c6.54 35.15 20.03 63.17 40.47 84.02 25.75 27.79 58.44 41.7 98.1 41.7 39.65 0 71.53-13.71 95.67-41.09 12.25-13.49 19.63-24.75 22.08-33.73 4.08-13.89 2.45-25.97-4.91-36.17-7.77-9.82-18.81-14.73-33.11-14.73zm46.61-125.69h328.05c20.42 1.629 34.33 6.531 41.69 14.699 7.37 8.192 11.65 21.262 12.89 39.26 0 82.97-21.26 154.73-63.79 215.23-52.72 75.62-128.76 113.44-228.1 113.44-94.03 0-168.42-33.94-223.19-101.79-50.3-61.73-75.43-140.02-75.43-234.85 0-95.669 25.95-173.15 77.88-232.41 55.57-62.547 131.01-93.808 226.26-93.808 63.35 0 125.5 27.179 186.42 81.558 24.11 26.981 44.53 53.961 61.31 80.942 14.31 30.648 3.89 45.968-31.28 45.968h-109.14c-24.95-51.488-60.5-77.25-106.69-77.25-45.39 0-81.78 16.75-109.16 50.27-14.3 17.582-23.29 33.523-26.98 47.851-3.68 14.301-1.63 26.36 6.14 36.161 7.75 9.828 18.79 14.73 33.12 14.73"/></g><path d="m5228.1 5603.7-445.21-666.27c259.17-206.73 425.79-524.81 426.6-881.16-0.81-356.35-167.43-674.43-426.6-881.16l445.21-666.27c473.18 351.53 780.57 914.19 781.42 1547.4-0.85 633.24-308.24 1195.9-781.42 1547.4" fill="#ee2e21"/><path d="m2935.4 2508.8 445.22 666.27c-259.18 206.73-425.79 524.81-426.61 881.16 0.82 356.35 167.43 674.43 426.61 881.16l-445.22 666.27c-473.17-351.52-780.56-914.19-781.41-1547.4 0.85-633.24 308.24-1195.9 781.41-1547.4" fill="#448cd2"/><path d="m5415.4 3001.9c-25.84 20.75-63.62 16.6-84.35-9.24-20.22-25.2-41.4-50.15-62.96-74.16-22.15-24.65-20.12-62.58 4.53-84.73 11.46-10.3 25.79-15.37 40.08-15.37 16.43 0 32.8 6.72 44.64 19.91 23.06 25.65 45.7 52.32 67.31 79.25 20.74 25.85 16.6 63.61-9.25 84.34" fill="#d52b23"/><path d="m5766.2 4561.5c-8.69 31.98-41.71 50.84-73.64 42.15-31.99-8.69-50.85-41.67-42.16-73.64 40.14-147.62 60.5-300.79 60.5-455.26 0-327.06-91.67-645.5-265.09-920.88-17.66-28.04-9.24-65.08 18.8-82.75 9.93-6.25 20.98-9.23 31.91-9.23 19.93 0 39.43 9.92 50.83 28.03 185.5 294.55 283.55 635.11 283.55 984.83 0 165.11-21.77 328.87-64.7 486.75" fill="#d52b23"/><path d="m2877.1 5277.6c-11.46 10.3-25.79 15.37-40.07 15.37-16.44 0-32.81-6.71-44.65-19.9-23.06-25.66-45.7-52.32-67.31-79.25-20.74-25.86-16.6-63.62 9.25-84.35 25.84-20.74 63.62-16.6 84.35 9.25 20.22 25.2 41.4 50.15 62.96 74.15 22.15 24.65 20.12 62.59-4.53 84.73" fill="#579dda"/><path d="m2685 5040.2c-9.93 6.25-20.98 9.24-31.91 9.24-19.93 0-39.42-9.93-50.83-28.04-185.5-294.55-283.55-635.1-283.55-984.83 0-165.1 21.77-328.87 64.7-486.74 8.69-31.99 41.71-50.84 73.64-42.16 31.99 8.7 50.85 41.67 42.16 73.64-40.14 147.62-60.5 300.79-60.5 455.26 0 327.07 91.67 645.5 265.09 920.88 17.66 28.04 9.24 65.09-18.8 82.75" fill="#579dda"/><g fill="#293f51"><path d="m5240.1 2580.9-390.56 584.47c260.37 224.39 409.2 546.46 409.98 890.97-0.78 344.3-149.61 666.36-409.98 890.75l390.56 584.48c29.78-23.46 58.71-47.81 86.87-72.9l-326.99-458.07c-16.04-22.48-10.83-53.7 11.64-69.74 8.81-6.29 18.96-9.31 29.01-9.31 15.61 0 30.98 7.28 40.74 20.95l319.16 447.11c23.14-22.97 45.58-46.56 67.44-70.63l-250.65-339c-16.41-22.21-11.72-53.52 10.48-69.93 8.95-6.62 19.36-9.8 29.69-9.8 15.31 0 30.44 7.01 40.24 20.27l237.09 320.67c20.3-24.94 39.91-50.41 58.88-76.3l-153.87-196.7c-17.01-21.74-13.17-53.17 8.58-70.18 9.15-7.16 20-10.62 30.77-10.62 14.85 0 29.56 6.59 39.42 19.19l134.64 172.12c196.29-301.54 305.81-656.8 306.3-1022.4-0.76-572.86-268.73-1120.4-719.44-1475.4zm-601.64-317.24c-17.52-5.45-31.3 0.82-37.96 5.06-6.67 4.25-18.22 14.08-20.71 32.31l-83.69 616.51c-2.78 20.49 8.77 40.32 28.09 48.21 87.32 35.67 170.09 81.76 246.69 137.34l388.93-582.03c-160-112.77-335.16-199.28-521.35-257.4zm132.42 2745.7c-76.6 55.58-159.37 101.67-246.69 137.34-19.32 7.89-30.87 27.72-28.09 48.22l83.69 616.5c2.49 18.23 14.04 28.07 20.71 32.31 4.8 3.06 13.33 7.19 24.29 7.19 4.21 0 8.79-0.61 13.66-2.13 186.2-58.12 361.36-144.62 521.35-257.4zm1069.5-50.85c-131.02 253.89-318.78 479.88-544.65 656.34l0.38 0.58-80.37 59.7-0.43-0.64c-167.94 118.08-351.72 208.78-547.09 269.76-40.95 12.77-85.22 6.88-121.42-16.15-36.24-23.06-60.34-60.68-66.11-103.23l-83.69-616.5c-8.92-65.68 27.82-129.11 89.36-154.25 95.18-38.87 184.46-91.3 265.36-155.83 258.41-206.12 407.03-513.08 407.78-841.96-0.75-329.1-149.37-636.06-407.78-842.18-80.9-64.53-170.18-116.96-265.36-155.83-61.54-25.14-98.28-88.57-89.36-154.25l83.69-616.5c5.77-42.54 29.87-80.17 66.11-103.23 23.63-15.04 50.7-22.77 78.04-22.77 14.54 0 29.16 2.19 43.39 6.63 195.36 60.98 379.14 151.67 547.09 269.75l0.42-0.64 42.19 31.34 38.18 28.37-0.38 0.57c225.87 176.46 413.63 402.45 544.65 656.35 144.99 280.99 218.72 584.54 219.14 902.35-0.42 317.67-74.15 621.22-219.14 902.22"/><path d="m3667.4 2917.6-83.69-616.5c-2.48-18.23-14.03-28.06-20.7-32.31-6.65-4.24-20.45-10.51-37.95-5.06-186.2 58.12-361.37 144.63-521.36 257.4l388.93 582.03c76.6-55.58 159.36-101.67 246.69-137.34 19.31-7.89 30.86-27.72 28.08-48.22zm-743.99-336.63c-29.78 23.45-58.71 47.8-86.87 72.89l326.98 458.07c16.05 22.48 10.83 53.7-11.64 69.74-22.47 16.05-53.7 10.84-69.74-11.64l-319.16-447.1c-23.15 22.97-45.58 46.56-67.44 70.62l250.64 339c16.42 22.21 11.73 53.52-10.48 69.93-22.2 16.42-53.51 11.74-69.93-10.47l-237.08-320.67c-20.31 24.95-39.91 50.41-58.88 76.31l153.86 196.68c17.01 21.75 13.18 53.18-8.57 70.19-21.77 17.04-53.18 13.17-70.2-8.57l-134.64-172.12c-196.28 301.54-305.81 656.8-306.3 1022.4 0.77 572.86 268.73 1120.4 719.45 1475.4l390.55-584.48c-260.37-224.39-409.2-546.46-409.98-890.97 0.78-344.3 149.61-666.36 409.98-890.75zm601.64 3267.9c17.54 5.46 31.31-0.83 37.96-5.06 6.67-4.24 18.22-14.08 20.7-32.31l83.69-616.5c2.78-20.5-8.77-40.33-28.08-48.22-87.33-35.67-170.09-81.76-246.69-137.34l-388.93 582.03c159.99 112.78 335.16 199.28 521.35 257.4zm152.08-2790.5c-95.19 38.87-184.46 91.3-265.36 155.83-258.41 206.12-407.03 513.08-407.79 841.96 0.76 329.1 149.38 636.06 407.79 842.18 80.9 64.53 170.17 116.96 265.36 155.83 61.53 25.14 98.28 88.57 89.35 154.25l-83.69 616.5c-5.77 42.55-29.86 80.17-66.1 103.23-36.2 23.05-80.47 28.92-121.43 16.15-195.37-60.98-379.14-151.68-547.09-269.76l-0.43 0.64-42.18-31.34-38.19-28.36 0.39-0.58c-225.87-176.46-413.64-402.45-544.66-656.34-144.99-281-218.72-584.55-219.14-902.36 0.42-317.67 74.15-621.22 219.14-902.21 131.02-253.9 318.79-479.89 544.65-656.35l-0.38-0.57 38.19-28.37 42.18-31.34 0.43 0.64c167.95-118.08 351.72-208.77 547.09-269.76 14.22-4.43 28.84-6.62 43.38-6.62 27.35 0 54.42 7.73 78.05 22.77 36.24 23.06 60.33 60.69 66.1 103.23l83.69 616.5c8.93 65.68-27.82 129.11-89.35 154.25"/><path d="m4460.9 3774.9c-4.18 18.47-20.3 31.79-39.23 32.41l-127.43 2.28v168.97c0 46.06-36.74 83.73-82.79 84.87l-393.28 9.75v146.41h105.07c56.19 0 101.73 45.55 101.73 101.73v114.94h193.2s78.43 44.36 110.94 99.4c165.13-88.34 277.75-262.48 277.75-462.48 0-133.34-50.12-255.15-132.42-347.76zm-436.06-222.65c-261.92 28.89-466.35 251.45-466.35 520.93 0 45.29 5.78 89.25 16.62 131.19l300.39-318.11v-114.28c0-24.46 38.66-62.39 68.48-62.39h65.37c8.56 0 15.49-6.93 15.49-15.49zm682.02 520.93c0 344.18-280.01 624.19-624.18 624.19-344.18 0-624.19-280.01-624.19-624.19s280.01-624.19 624.19-624.19c344.17 0 624.18 280.01 624.18 624.19"/></g></g></g></svg>
