<svg width="48" height="48" version="1.1" viewBox="0 0 48 48" xmlns="http://www.w3.org/2000/svg">
 <style type="text/css">.st0{display:none;opacity:0;fill:#FFFFFF;}
	.st1{fill:#939598;}
	.st2{fill:#F63806;}
	.st3{fill:#148ED5;}
	.st4{fill:#D43105;}
	.st5{fill:#17A2F5;}
	.st6{fill:#284454;}</style>
 <rect id="a" class="st0" x="-236.45" y="-237.82" width="519.1" height="519.1"/>
 <g id="b" transform="matrix(.96018 0 0 .96018 1 .42944)">
  <g id="c">
   <path id="d" class="st1" d="m29.1 11.9c1.2 0.5 2.4 1.2 3.4 2l5.4-8.1c-2.1-1.6-4.4-2.8-7-3.6-0.7-0.2-1.4 0.2-1.5 1l-1 7.5c-0.1 0.5 0.2 1 0.7 1.2z"/>
   <path id="e" class="st1" d="m29.1 37.2c-0.5 0.2-0.8 0.7-0.7 1.2l1 7.5c0.1 0.7 0.8 1.2 1.5 1 2.5-0.8 4.9-2 7-3.6l-5.4-8.1c-1 0.8-2.2 1.5-3.4 2z"/>
   <path id="f" class="st1" d="m18.8 37.2c-1.2-0.5-2.4-1.2-3.4-2l-5.4 8.1c2.1 1.6 4.4 2.8 7 3.6 0.7 0.2 1.4-0.2 1.5-1l1-7.5c0.1-0.5-0.2-1-0.7-1.2z"/>
   <path id="g" class="st1" d="m18.5 3.1c-0.1-0.7-0.8-1.2-1.5-1-2.5 0.8-4.9 2-7 3.6l5.4 8.1c1-0.8 2.1-1.5 3.4-2 0.5-0.2 0.8-0.7 0.7-1.2z"/>
   <path id="h" class="st1" d="m26.3 2.9h-4.6c-0.3 0-0.6 0.3-0.6 0.6s0.3 0.6 0.6 0.6h4.6c0.3 0 0.6-0.3 0.6-0.6s-0.2-0.6-0.6-0.6z"/>
   <path id="i" class="st1" d="m26.6 6.6c0-0.3-0.3-0.6-0.6-0.6h-3.9c-0.3 0-0.6 0.3-0.6 0.6s0.3 0.6 0.6 0.6h3.9c0.3 0 0.6-0.2 0.6-0.6z"/>
   <path id="j" class="st1" d="m25.6 9.1h-3.2c-0.3 0-0.6 0.3-0.6 0.6s0.3 0.6 0.6 0.6h3.2c0.3 0 0.6-0.3 0.6-0.6 0.1-0.3-0.2-0.6-0.6-0.6z"/>
   <path id="k" class="st1" d="m26.3 45h-4.6c-0.3 0-0.6 0.3-0.6 0.6s0.3 0.6 0.6 0.6h4.6c0.3 0 0.6-0.3 0.6-0.6s-0.2-0.6-0.6-0.6z"/>
   <path id="l" class="st1" d="m22.1 43.2h3.9c0.3 0 0.6-0.3 0.6-0.6s-0.3-0.6-0.6-0.6h-3.9c-0.3 0-0.6 0.3-0.6 0.6s0.3 0.6 0.6 0.6z"/>
   <path id="m" class="st1" d="m25.6 38.9h-3.2c-0.3 0-0.6 0.3-0.6 0.6s0.3 0.6 0.6 0.6h3.2c0.3 0 0.6-0.3 0.6-0.6s-0.2-0.6-0.6-0.6z"/>
  </g>
  <path id="n" class="st2" d="m37.9 5.7-5.4 8.1c3.1 2.5 5.2 6.4 5.2 10.7s-2 8.2-5.2 10.7l5.4 8.1c5.7-4.3 9.5-11.1 9.5-18.8s-3.8-14.5-9.5-18.8z"/>
  <path id="o" class="st3" d="m10.1 43.3 5.4-8.1c-3.1-2.5-5.2-6.4-5.2-10.7s2-8.2 5.2-10.7l-5.4-8.1c-5.8 4.3-9.5 11.1-9.5 18.8s3.7 14.5 9.5 18.8z"/>
  <g id="p">
   <path id="q" class="st4" d="m40.2 37.3c-0.3-0.3-0.8-0.2-1 0.1s-0.5 0.6-0.8 0.9-0.2 0.8 0.1 1c0.1 0.1 0.3 0.2 0.5 0.2s0.4-0.1 0.5-0.2c0.3-0.3 0.6-0.6 0.8-1 0.2-0.3 0.2-0.7-0.1-1z"/>
   <path id="r" class="st4" d="m44.4 18.4c-0.1-0.4-0.5-0.6-0.9-0.5s-0.6 0.5-0.5 0.9c0.5 1.8 0.7 3.7 0.7 5.5 0 4-1.1 7.8-3.2 11.2-0.2 0.3-0.1 0.8 0.2 1 0.1 0.1 0.3 0.1 0.4 0.1 0.2 0 0.5-0.1 0.6-0.3 2.3-3.6 3.4-7.7 3.4-12 0.1-2-0.2-4-0.7-5.9z"/>
  </g>
  <g id="s">
   <path id="t" class="st5" d="m9.4 9.7c-0.2-0.1-0.3-0.2-0.5-0.2s-0.4 0.1-0.5 0.2c-0.3 0.3-0.6 0.6-0.8 1-0.3 0.3-0.2 0.8 0.1 1 0.3 0.3 0.8 0.2 1-0.1s0.5-0.6 0.8-0.9c0.2-0.3 0.2-0.7-0.1-1z"/>
   <path id="u" class="st5" d="m7 12.6c-0.1-0.1-0.3-0.1-0.4-0.1-0.2 0-0.5 0.1-0.6 0.3-2.3 3.6-3.4 7.7-3.4 12 0 2 0.3 4 0.8 5.9 0.1 0.4 0.5 0.6 0.9 0.5s0.6-0.5 0.5-0.9c-0.5-1.8-0.8-3.7-0.8-5.5 0-4 1.1-7.8 3.2-11.2 0.3-0.3 0.2-0.8-0.2-1z"/>
  </g>
  <path id="v" class="st6" d="m45.3 13.6c-1.6-3.1-3.9-5.8-6.6-8l-0.5-0.3-0.5-0.4c-2-1.4-4.3-2.5-6.6-3.3-0.5-0.2-1-0.1-1.5 0.2-0.4 0.3-0.7 0.7-0.8 1.3l-1 7.5c-0.1 0.8 0.3 1.6 1.1 1.9 1.2 0.5 2.2 1.1 3.2 1.9 3.1 2.5 4.9 6.2 4.9 10.2s-1.8 7.7-4.9 10.2c-1 0.8-2.1 1.4-3.2 1.9-0.7 0.3-1.2 1.1-1.1 1.9l1 7.5c0.1 0.5 0.4 1 0.8 1.3 0.3 0.2 0.6 0.3 0.9 0.3 0.2 0 0.4 0 0.5-0.1 2.4-0.7 4.6-1.8 6.6-3.3l0.5-0.4 0.5-0.3c2.7-2.1 5-4.9 6.6-8 1.8-3.4 2.7-7.1 2.7-10.9 0.1-4-0.8-7.7-2.6-11.1zm-13-0.6c-0.9-0.7-1.9-1.2-3-1.7-0.2-0.1-0.3-0.3-0.3-0.6l1-7.5c0-0.2 0.2-0.3 0.3-0.4 0.1 0 0.2-0.1 0.3-0.1h0.2c2.3 0.7 4.4 1.8 6.3 3.1zm-1.6 33.3c-0.2 0.1-0.4 0-0.5-0.1s-0.2-0.2-0.3-0.4l-1-7.5c0-0.2 0.1-0.5 0.3-0.6 1.1-0.4 2.1-1 3-1.7l4.7 7.1c-1.8 1.4-3.9 2.5-6.2 3.2zm7.3-3.9-4.7-7.1c3.2-2.7 5-6.6 5-10.8s-1.8-8.1-5-10.8l4.7-7.1c0.4 0.3 0.7 0.6 1.1 0.9l-4 5.6c-0.2 0.3-0.1 0.7 0.1 0.8 0.1 0.1 0.2 0.1 0.4 0.1s0.4-0.1 0.5-0.3l3.9-5.4c0.3 0.3 0.6 0.6 0.8 0.9l-3 4.1c-0.2 0.3-0.1 0.6 0.1 0.8 0.1 0.1 0.2 0.1 0.4 0.1s0.4-0.1 0.5-0.2l2.9-3.9c0.2 0.3 0.5 0.6 0.7 0.9l-1.9 2.4c-0.2 0.3-0.2 0.6 0.1 0.9 0.1 0.1 0.2 0.1 0.4 0.1s0.4-0.1 0.5-0.2l1.6-2.1c2.4 3.7 3.7 8 3.7 12.4 0 7-3.3 13.6-8.8 17.9z"/>
  <path id="w" class="st6" d="m19.1 36.6c-1.2-0.5-2.2-1.1-3.2-1.9-3.1-2.5-4.9-6.2-4.9-10.2s1.8-7.7 4.9-10.2c1-0.8 2.1-1.4 3.2-1.9 0.7-0.3 1.2-1.1 1.1-1.9l-1-7.5c-0.1-0.5-0.4-1-0.8-1.3s-1-0.4-1.5-0.2c-2.4 0.7-4.6 1.8-6.6 3.3l-0.6 0.5-0.4 0.3c-2.7 2.1-5 4.9-6.6 8-1.8 3.4-2.7 7.1-2.7 10.9 0 3.9 0.9 7.5 2.7 10.9 1.6 3.1 3.9 5.8 6.6 8l0.5 0.3 0.5 0.4c2 1.4 4.3 2.5 6.6 3.3 0.2 0.1 0.3 0.1 0.5 0.1 0.3 0 0.7-0.1 0.9-0.3 0.4-0.3 0.7-0.7 0.8-1.3l1-7.5c0.2-0.7-0.3-1.5-1-1.8zm-1.9-33.8c0.2-0.1 0.4 0 0.5 0.1s0.2 0.2 0.3 0.4l1 7.5c0 0.2-0.1 0.5-0.3 0.6-1.1 0.4-2.1 1-3 1.7l-4.7-7.1c1.8-1.5 4-2.5 6.2-3.2zm-7.3 39.6c-0.4-0.3-0.7-0.6-1.1-0.9l4-5.6c0.2-0.3 0.1-0.7-0.1-0.8-0.3-0.2-0.7-0.1-0.8 0.1l-3.9 5.5c-0.3-0.3-0.6-0.6-0.8-0.9l3-4.1c0.2-0.3 0.1-0.6-0.1-0.8-0.3-0.2-0.6-0.1-0.8 0.1l-2.9 3.9c-0.2-0.3-0.5-0.6-0.7-0.9l1.9-2.4c0.2-0.3 0.2-0.6-0.1-0.9-0.3-0.2-0.6-0.2-0.9 0.1l-1.6 2.1c-2.4-3.7-3.7-8-3.7-12.4 0-7 3.3-13.6 8.7-17.9l4.7 7.1c-3.2 2.7-5 6.6-5 10.8s1.8 8.1 5 10.8zm9.1-4.1-1 7.5c0 0.2-0.2 0.3-0.3 0.4s-0.2 0.1-0.5 0.1c-2.3-0.7-4.4-1.8-6.3-3.1l4.7-7.1c0.9 0.7 1.9 1.2 3 1.7 0.3 0.1 0.4 0.3 0.4 0.5z"/>
  <path id="x" class="st6" d="m31.5 24.6c0-4.1-3.4-7.5-7.5-7.5s-7.5 3.4-7.5 7.5 3.4 7.5 7.5 7.5 7.5-3.4 7.5-7.5zm-8.2 6.2c-3.1-0.3-5.6-3-5.6-6.3 0-0.5 0.1-1.1 0.2-1.6l3.6 3.8v1.4c0 0.3 0.5 0.7 0.8 0.7h0.8c0.1 0 0.2 0.1 0.2 0.2zm5.2-2.7c-0.1-0.2-0.2-0.4-0.5-0.4h-1.5v-2c0-0.6-0.4-1-1-1l-4.7-0.1v-1.8h1.3c0.7 0 1.2-0.5 1.2-1.2v-1.4h2.3s0.9-0.5 1.3-1.2c2 1.1 3.3 3.2 3.3 5.6 0 1.6-0.6 3.1-1.6 4.2z"/>
 </g>
</svg>
